# xmcd
# Track frame offsets:
# 150
# 23347
# 38965
# 52532
# 66035
# 80847
# 97560
# 110885
# 126840
# 140807
#
# Disc length: 2130 seconds
# Revision: 0
# Processed by: cddbd v1.4PL0 Copyright (c) Steve Scherf et al.
# Submitted via: VisiTrax 2.9.5.180 - For more info visit www.synapsa.com
#
DISCID=7c08500a
DTITLE=Mel Tillis - Wings of my victory
DYEAR=1900
DGENRE=
TTITLE0=Wings of my victory
TTITLE1=Faded blue
TTITLE2=Almost likr you never went away
TTITLE3=No one to talk to
TTITLE4=He drove her out of his mind
TTITLE5=Matter of wine
TTITLE6=Small change
TTITLE7=Bed of roses
TTITLE8=Slow nights
TTITLE9=Take a look at me
EXTD=
EXTT0=
EXTT1=
EXTT2=
EXTT3=
EXTT4=
EXTT5=
EXTT6=
EXTT7=
EXTT8=
EXTT9=
PLAYORDER=
